<svg width="414" height="495" viewBox="0 0 414 495" fill="none" xmlns="http://www.w3.org/2000/svg">
<g filter="url(#filter0_d_38_200)">
<path d="M17 51C17 31.1177 33.1177 15 53 15H289C308.882 15 325 31.1178 325 51V476H17V51Z" fill="#D9D9D9"/>
<path d="M17 51C17 31.1177 33.1177 15 53 15H289C308.882 15 325 31.1178 325 51V476H17V51Z" fill="url(#paint0_linear_38_200)"/>
<path d="M17 51C17 31.1177 33.1177 15 53 15H289C308.882 15 325 31.1178 325 51V476H17V51Z" fill="url(#paint1_linear_38_200)"/>
</g>
<g filter="url(#filter1_d_38_200)">
<path d="M42 51C42 44.9249 46.9249 40 53 40H289C295.075 40 300 44.9249 300 51V476H42V51Z" fill="#D9D9D9"/>
<path d="M42 51C42 44.9249 46.9249 40 53 40H289C295.075 40 300 44.9249 300 51V476H42V51Z" fill="url(#paint2_linear_38_200)"/>
</g>
<rect x="72" y="273" width="84" height="173" rx="6" fill="black" fill-opacity="0.33"/>
<rect x="72" y="70" width="84" height="173" rx="6" fill="black" fill-opacity="0.33"/>
<rect x="186" y="70" width="84" height="173" rx="6" fill="black" fill-opacity="0.33"/>
<rect x="186" y="273" width="84" height="173" rx="6" fill="black" fill-opacity="0.33"/>
<g filter="url(#filter2_d_38_200)">
<circle cx="270" cy="258" r="19" fill="#D9D9D9"/>
<circle cx="270" cy="258" r="19" fill="url(#paint3_linear_38_200)"/>
<circle cx="270" cy="258" r="19" fill="url(#paint4_linear_38_200)"/>
<circle cx="270" cy="258" r="18" stroke="black" stroke-opacity="0.21" stroke-width="2"/>
</g>
<g filter="url(#filter3_d_38_200)">
<mask id="path-9-inside-1_38_200" fill="white">
<path d="M324.5 135C343.814 135 359.471 150.657 359.471 169.971V171.945L329.75 185.793C328.436 186.405 328.436 188.274 329.75 188.886L359.471 202.732V206.916L329.75 220.764C328.436 221.376 328.436 223.244 329.75 223.856L359.471 237.703V241.887L329.75 255.734C328.436 256.347 328.436 258.215 329.75 258.827L359.471 272.674V276.857L329.75 290.705C328.436 291.317 328.436 293.185 329.75 293.797L359.471 307.644V338.853C359.471 339.283 359.46 339.712 359.444 340.14C381.832 352.479 397 376.306 397 403.677C397 443.717 364.541 476.177 324.5 476.177C284.459 476.177 252 443.717 252 403.677C252 376.306 267.168 352.479 289.556 340.14C289.54 339.712 289.529 339.283 289.529 338.853V169.971C289.529 150.657 305.186 135 324.5 135ZM324.5 375.529C308.955 375.529 296.353 388.132 296.353 403.677C296.353 419.222 308.955 431.824 324.5 431.824C340.045 431.824 352.647 419.222 352.647 403.677C352.647 388.132 340.045 375.529 324.5 375.529Z"/>
</mask>
<path d="M324.5 135C343.814 135 359.471 150.657 359.471 169.971V171.945L329.75 185.793C328.436 186.405 328.436 188.274 329.75 188.886L359.471 202.732V206.916L329.75 220.764C328.436 221.376 328.436 223.244 329.75 223.856L359.471 237.703V241.887L329.75 255.734C328.436 256.347 328.436 258.215 329.75 258.827L359.471 272.674V276.857L329.75 290.705C328.436 291.317 328.436 293.185 329.75 293.797L359.471 307.644V338.853C359.471 339.283 359.46 339.712 359.444 340.14C381.832 352.479 397 376.306 397 403.677C397 443.717 364.541 476.177 324.5 476.177C284.459 476.177 252 443.717 252 403.677C252 376.306 267.168 352.479 289.556 340.14C289.54 339.712 289.529 339.283 289.529 338.853V169.971C289.529 150.657 305.186 135 324.5 135ZM324.5 375.529C308.955 375.529 296.353 388.132 296.353 403.677C296.353 419.222 308.955 431.824 324.5 431.824C340.045 431.824 352.647 419.222 352.647 403.677C352.647 388.132 340.045 375.529 324.5 375.529Z" fill="#D9D9D9"/>
<path d="M324.5 135C343.814 135 359.471 150.657 359.471 169.971V171.945L329.75 185.793C328.436 186.405 328.436 188.274 329.75 188.886L359.471 202.732V206.916L329.75 220.764C328.436 221.376 328.436 223.244 329.75 223.856L359.471 237.703V241.887L329.75 255.734C328.436 256.347 328.436 258.215 329.75 258.827L359.471 272.674V276.857L329.75 290.705C328.436 291.317 328.436 293.185 329.75 293.797L359.471 307.644V338.853C359.471 339.283 359.46 339.712 359.444 340.14C381.832 352.479 397 376.306 397 403.677C397 443.717 364.541 476.177 324.5 476.177C284.459 476.177 252 443.717 252 403.677C252 376.306 267.168 352.479 289.556 340.14C289.54 339.712 289.529 339.283 289.529 338.853V169.971C289.529 150.657 305.186 135 324.5 135ZM324.5 375.529C308.955 375.529 296.353 388.132 296.353 403.677C296.353 419.222 308.955 431.824 324.5 431.824C340.045 431.824 352.647 419.222 352.647 403.677C352.647 388.132 340.045 375.529 324.5 375.529Z" fill="url(#paint5_linear_38_200)"/>
<path d="M324.5 135L324.5 133H324.5L324.5 135ZM359.471 169.971H361.471V169.971L359.471 169.971ZM359.471 171.945L360.315 173.758L361.471 173.22V171.945H359.471ZM329.75 185.793L328.905 183.98L328.905 183.98L329.75 185.793ZM329.75 188.886L328.905 190.699L328.905 190.699L329.75 188.886ZM359.471 202.732H361.471V201.458L360.315 200.92L359.471 202.732ZM359.471 206.916L360.315 208.729L361.471 208.191V206.916H359.471ZM329.75 220.764L328.905 218.951L328.905 218.951L329.75 220.764ZM329.75 223.856L328.905 225.669L328.905 225.669L329.75 223.856ZM359.471 237.703H361.471V236.429L360.315 235.89L359.471 237.703ZM359.471 241.887L360.315 243.7L361.471 243.161V241.887H359.471ZM329.75 255.734L328.905 253.921L328.905 253.922L329.75 255.734ZM329.75 258.827L328.905 260.64L328.905 260.64L329.75 258.827ZM359.471 272.674H361.471V271.399L360.315 270.861L359.471 272.674ZM359.471 276.857L360.315 278.67L361.471 278.132V276.857H359.471ZM329.75 290.705L328.905 288.892L328.905 288.892L329.75 290.705ZM329.75 293.797L328.905 295.61L328.905 295.61L329.75 293.797ZM359.471 307.644H361.471V306.369L360.315 305.831L359.471 307.644ZM359.444 340.14L357.446 340.067L357.401 341.297L358.479 341.891L359.444 340.14ZM397 403.677H399H397ZM324.5 476.177V478.177V476.177ZM252 403.677H250H252ZM289.556 340.14L290.521 341.891L291.599 341.297L291.554 340.067L289.556 340.14ZM289.529 169.971L287.529 169.971V169.971H289.529ZM324.5 375.529V373.529V375.529ZM296.353 403.677H294.353V403.677L296.353 403.677ZM324.5 431.824V433.824V431.824ZM352.647 403.677L354.647 403.677V403.677H352.647ZM324.5 135L324.5 137C342.709 137 357.471 151.762 357.471 169.971L359.471 169.971L361.471 169.971C361.471 149.552 344.918 133 324.5 133L324.5 135ZM359.471 169.971H357.471V171.945H359.471H361.471V169.971H359.471ZM359.471 171.945L358.626 170.132L328.905 183.98L329.75 185.793L330.595 187.606L360.315 173.758L359.471 171.945ZM329.75 185.793L328.905 183.98C326.051 185.31 326.051 189.369 328.905 190.699L329.75 188.886L330.595 187.073C330.63 187.089 330.683 187.13 330.721 187.193C330.754 187.248 330.765 187.299 330.765 187.339C330.765 187.379 330.754 187.43 330.721 187.485C330.683 187.548 330.63 187.589 330.595 187.606L329.75 185.793ZM329.75 188.886L328.905 190.699L358.626 204.545L359.471 202.732L360.315 200.92L330.595 187.073L329.75 188.886ZM359.471 202.732H357.471V206.916H359.471H361.471V202.732H359.471ZM359.471 206.916L358.626 205.103L328.905 218.951L329.75 220.764L330.595 222.577L360.315 208.729L359.471 206.916ZM329.75 220.764L328.905 218.951C326.051 220.281 326.051 224.339 328.905 225.669L329.75 223.856L330.595 222.044C330.63 222.06 330.683 222.101 330.721 222.164C330.754 222.219 330.765 222.27 330.765 222.31C330.765 222.35 330.754 222.401 330.721 222.456C330.683 222.519 330.63 222.56 330.595 222.577L329.75 220.764ZM329.75 223.856L328.905 225.669L358.626 239.516L359.471 237.703L360.315 235.89L330.595 222.044L329.75 223.856ZM359.471 237.703H357.471V241.887H359.471H361.471V237.703H359.471ZM359.471 241.887L358.626 240.074L328.905 253.921L329.75 255.734L330.595 257.547L360.315 243.7L359.471 241.887ZM329.75 255.734L328.905 253.922C326.051 255.252 326.051 259.31 328.905 260.64L329.75 258.827L330.595 257.014C330.63 257.031 330.683 257.072 330.721 257.135C330.754 257.19 330.765 257.241 330.765 257.281C330.765 257.321 330.754 257.372 330.721 257.427C330.683 257.49 330.63 257.531 330.595 257.547L329.75 255.734ZM329.75 258.827L328.905 260.64L358.626 274.487L359.471 272.674L360.315 270.861L330.595 257.014L329.75 258.827ZM359.471 272.674H357.471V276.857H359.471H361.471V272.674H359.471ZM359.471 276.857L358.626 275.045L328.905 288.892L329.75 290.705L330.595 292.518L360.315 278.67L359.471 276.857ZM329.75 290.705L328.905 288.892C326.051 290.222 326.052 294.28 328.905 295.61L329.75 293.797L330.595 291.984C330.63 292.001 330.683 292.041 330.721 292.104C330.755 292.159 330.765 292.211 330.765 292.251C330.765 292.291 330.755 292.342 330.721 292.398C330.683 292.461 330.63 292.501 330.595 292.518L329.75 290.705ZM329.75 293.797L328.905 295.61L358.626 309.456L359.471 307.644L360.315 305.831L330.595 291.984L329.75 293.797ZM359.471 307.644H357.471V338.853H359.471H361.471V307.644H359.471ZM359.471 338.853H357.471C357.471 339.251 357.461 339.654 357.446 340.067L359.444 340.14L361.443 340.212C361.459 339.771 361.471 339.316 361.471 338.853H359.471ZM359.444 340.14L358.479 341.891C380.255 353.893 395 377.064 395 403.677H397H399C399 375.548 383.41 351.065 360.41 338.388L359.444 340.14ZM397 403.677H395C395 442.613 363.436 474.177 324.5 474.177V476.177V478.177C365.645 478.177 399 444.822 399 403.677H397ZM324.5 476.177V474.177C285.564 474.177 254 442.613 254 403.677H252H250C250 444.822 283.355 478.177 324.5 478.177V476.177ZM252 403.677H254C254 377.064 268.745 353.893 290.521 341.891L289.556 340.14L288.59 338.388C265.59 351.065 250 375.548 250 403.677H252ZM289.556 340.14L291.554 340.067C291.539 339.654 291.529 339.251 291.529 338.853H289.529H287.529C287.529 339.316 287.541 339.771 287.557 340.212L289.556 340.14ZM289.529 338.853H291.529V169.971H289.529H287.529V338.853H289.529ZM289.529 169.971L291.529 169.971C291.529 151.762 306.291 137 324.5 137L324.5 135L324.5 133C304.082 133 287.529 149.552 287.529 169.971L289.529 169.971ZM324.5 375.529V373.529C307.85 373.529 294.353 387.027 294.353 403.677H296.353H298.353C298.353 389.236 310.059 377.529 324.5 377.529V375.529ZM296.353 403.677L294.353 403.677C294.353 420.326 307.85 433.824 324.5 433.824V431.824V429.824C310.059 429.824 298.353 418.117 298.353 403.677L296.353 403.677ZM324.5 431.824V433.824C341.15 433.824 354.647 420.326 354.647 403.677L352.647 403.677L350.647 403.677C350.647 418.117 338.941 429.824 324.5 429.824V431.824ZM352.647 403.677H354.647C354.647 387.027 341.15 373.529 324.5 373.529V375.529V377.529C338.941 377.529 350.647 389.236 350.647 403.677H352.647Z" fill="black" fill-opacity="0.21" mask="url(#path-9-inside-1_38_200)"/>
</g>
<defs>
<filter id="filter0_d_38_200" x="0.9" y="0.9" width="340.2" height="493.2" filterUnits="userSpaceOnUse" color-interpolation-filters="sRGB">
<feFlood flood-opacity="0" result="BackgroundImageFix"/>
<feColorMatrix in="SourceAlpha" type="matrix" values="0 0 0 0 0 0 0 0 0 0 0 0 0 0 0 0 0 0 127 0" result="hardAlpha"/>
<feOffset dy="2"/>
<feGaussianBlur stdDeviation="8.05"/>
<feComposite in2="hardAlpha" operator="out"/>
<feColorMatrix type="matrix" values="0 0 0 0 0 0 0 0 0 0 0 0 0 0 0 0 0 0 0.29 0"/>
<feBlend mode="normal" in2="BackgroundImageFix" result="effect1_dropShadow_38_200"/>
<feBlend mode="normal" in="SourceGraphic" in2="effect1_dropShadow_38_200" result="shape"/>
</filter>
<filter id="filter1_d_38_200" x="25.9" y="25.9" width="290.2" height="468.2" filterUnits="userSpaceOnUse" color-interpolation-filters="sRGB">
<feFlood flood-opacity="0" result="BackgroundImageFix"/>
<feColorMatrix in="SourceAlpha" type="matrix" values="0 0 0 0 0 0 0 0 0 0 0 0 0 0 0 0 0 0 127 0" result="hardAlpha"/>
<feOffset dy="2"/>
<feGaussianBlur stdDeviation="8.05"/>
<feComposite in2="hardAlpha" operator="out"/>
<feColorMatrix type="matrix" values="0 0 0 0 0 0 0 0 0 0 0 0 0 0 0 0 0 0 0.29 0"/>
<feBlend mode="normal" in2="BackgroundImageFix" result="effect1_dropShadow_38_200"/>
<feBlend mode="normal" in="SourceGraphic" in2="effect1_dropShadow_38_200" result="shape"/>
</filter>
<filter id="filter2_d_38_200" x="234.9" y="224.9" width="70.2" height="70.2" filterUnits="userSpaceOnUse" color-interpolation-filters="sRGB">
<feFlood flood-opacity="0" result="BackgroundImageFix"/>
<feColorMatrix in="SourceAlpha" type="matrix" values="0 0 0 0 0 0 0 0 0 0 0 0 0 0 0 0 0 0 127 0" result="hardAlpha"/>
<feOffset dy="2"/>
<feGaussianBlur stdDeviation="8.05"/>
<feComposite in2="hardAlpha" operator="out"/>
<feColorMatrix type="matrix" values="0 0 0 0 0 0 0 0 0 0 0 0 0 0 0 0 0 0 0.29 0"/>
<feBlend mode="normal" in2="BackgroundImageFix" result="effect1_dropShadow_38_200"/>
<feBlend mode="normal" in="SourceGraphic" in2="effect1_dropShadow_38_200" result="shape"/>
</filter>
<filter id="filter3_d_38_200" x="235.9" y="120.9" width="177.2" height="373.377" filterUnits="userSpaceOnUse" color-interpolation-filters="sRGB">
<feFlood flood-opacity="0" result="BackgroundImageFix"/>
<feColorMatrix in="SourceAlpha" type="matrix" values="0 0 0 0 0 0 0 0 0 0 0 0 0 0 0 0 0 0 127 0" result="hardAlpha"/>
<feOffset dy="2"/>
<feGaussianBlur stdDeviation="8.05"/>
<feComposite in2="hardAlpha" operator="out"/>
<feColorMatrix type="matrix" values="0 0 0 0 0 0 0 0 0 0 0 0 0 0 0 0 0 0 0.29 0"/>
<feBlend mode="normal" in2="BackgroundImageFix" result="effect1_dropShadow_38_200"/>
<feBlend mode="normal" in="SourceGraphic" in2="effect1_dropShadow_38_200" result="shape"/>
</filter>
<linearGradient id="paint0_linear_38_200" x1="17" y1="15" x2="112.288" y2="516.423" gradientUnits="userSpaceOnUse">
<stop stop-color="#E1E1E1"/>
<stop offset="1" stop-color="#776D64"/>
</linearGradient>
<linearGradient id="paint1_linear_38_200" x1="17" y1="15" x2="112.288" y2="516.423" gradientUnits="userSpaceOnUse">
<stop stop-color="#B96200"/>
<stop offset="1" stop-color="#6B3900"/>
</linearGradient>
<linearGradient id="paint2_linear_38_200" x1="42" y1="40" x2="151.027" y2="510.519" gradientUnits="userSpaceOnUse">
<stop stop-color="#3EA5FA"/>
<stop offset="1" stop-color="#8239E6"/>
</linearGradient>
<linearGradient id="paint3_linear_38_200" x1="251" y1="239" x2="256.351" y2="281.145" gradientUnits="userSpaceOnUse">
<stop stop-color="#B96200"/>
<stop offset="1" stop-color="#6B3900"/>
</linearGradient>
<linearGradient id="paint4_linear_38_200" x1="251" y1="239" x2="256.351" y2="281.145" gradientUnits="userSpaceOnUse">
<stop stop-color="#E1E1E1"/>
<stop offset="1" stop-color="#776D64"/>
</linearGradient>
<linearGradient id="paint5_linear_38_200" x1="252" y1="135" x2="357.453" y2="487.991" gradientUnits="userSpaceOnUse">
<stop stop-color="#E1E1E1"/>
<stop offset="1" stop-color="#776D64"/>
</linearGradient>
</defs>
</svg>
