<svg width="97" height="24" viewBox="0 0 97 24" fill="none" xmlns="http://www.w3.org/2000/svg">
<g clip-path="url(#clip0_108_102)">
<rect y="4" width="16" height="16" rx="8" fill="#0FC281"/>
<rect x="2.07422" y="6.07227" width="11.8534" height="11.8534" rx="5.9267" fill="#2EE5A3"/>
<rect x="4.20898" y="8.20898" width="7.60247" height="7.60247" rx="3.80123" fill="#5CFFC4"/>
<rect x="2.07422" y="6.07227" width="11.8534" height="11.8534" rx="5.9267" fill="#2EE5A3"/>
<rect x="4.20898" y="8.20898" width="7.60247" height="7.60247" rx="3.80123" fill="#5CFFC4"/>
</g>
<path d="M31.56 19L25.94 5H27.64L33.34 19H31.56ZM20.18 19L25.88 5H27.6L21.98 19H20.18ZM22.88 15.02V13.5H30.66V15.02H22.88ZM39.2584 19.24C38.2718 19.24 37.3984 19.02 36.6384 18.58C35.8784 18.1267 35.2851 17.5067 34.8584 16.72C34.4318 15.9333 34.2184 15.0267 34.2184 14C34.2184 12.9733 34.4251 12.0667 34.8384 11.28C35.2651 10.4933 35.8584 9.88 36.6184 9.44C37.3784 8.98667 38.2451 8.76 39.2184 8.76C40.1784 8.76 41.0384 8.98 41.7984 9.42C42.5584 9.86 43.1384 10.48 43.5384 11.28L42.0784 11.94C41.8118 11.4067 41.4251 10.9933 40.9184 10.7C40.4118 10.3933 39.8318 10.24 39.1784 10.24C38.5251 10.24 37.9451 10.4 37.4384 10.72C36.9451 11.04 36.5518 11.4867 36.2584 12.06C35.9784 12.62 35.8384 13.2667 35.8384 14C35.8384 14.7333 35.9784 15.3867 36.2584 15.96C36.5518 16.52 36.9518 16.96 37.4584 17.28C37.9784 17.6 38.5651 17.76 39.2184 17.76C39.8718 17.76 40.4518 17.5933 40.9584 17.26C41.4784 16.9267 41.8718 16.46 42.1384 15.86L43.5984 16.52C43.1984 17.3733 42.6184 18.04 41.8584 18.52C41.0984 19 40.2318 19.24 39.2584 19.24ZM50.0788 19.24C49.0921 19.24 48.2188 19.02 47.4588 18.58C46.6988 18.1267 46.1054 17.5067 45.6788 16.72C45.2521 15.9333 45.0388 15.0267 45.0388 14C45.0388 12.9733 45.2454 12.0667 45.6588 11.28C46.0854 10.4933 46.6788 9.88 47.4388 9.44C48.1988 8.98667 49.0654 8.76 50.0388 8.76C50.9988 8.76 51.8588 8.98 52.6188 9.42C53.3788 9.86 53.9588 10.48 54.3588 11.28L52.8988 11.94C52.6321 11.4067 52.2454 10.9933 51.7388 10.7C51.2321 10.3933 50.6521 10.24 49.9988 10.24C49.3454 10.24 48.7654 10.4 48.2588 10.72C47.7654 11.04 47.3721 11.4867 47.0788 12.06C46.7988 12.62 46.6588 13.2667 46.6588 14C46.6588 14.7333 46.7988 15.3867 47.0788 15.96C47.3721 16.52 47.7721 16.96 48.2788 17.28C48.7988 17.6 49.3854 17.76 50.0388 17.76C50.6921 17.76 51.2721 17.5933 51.7788 17.26C52.2988 16.9267 52.6921 16.46 52.9588 15.86L54.4188 16.52C54.0188 17.3733 53.4388 18.04 52.6788 18.52C51.9188 19 51.0521 19.24 50.0788 19.24ZM60.8591 19.24C59.8857 19.24 59.0191 19.02 58.2591 18.58C57.5124 18.1267 56.9257 17.5067 56.4991 16.72C56.0724 15.9333 55.8591 15.0267 55.8591 14C55.8591 12.9733 56.0657 12.0667 56.4791 11.28C56.9057 10.4933 57.4924 9.88 58.2391 9.44C58.9991 8.98667 59.8591 8.76 60.8191 8.76C61.8057 8.76 62.6724 8.98667 63.4191 9.44C64.1791 9.88 64.7657 10.4933 65.1791 11.28C65.6057 12.0667 65.8191 12.9733 65.8191 14C65.8191 15.0267 65.6057 15.9333 65.1791 16.72C64.7657 17.5067 64.1857 18.1267 63.4391 18.58C62.6924 19.02 61.8324 19.24 60.8591 19.24ZM60.8591 17.76C61.5257 17.76 62.1057 17.6 62.5991 17.28C63.0924 16.96 63.4791 16.52 63.7591 15.96C64.0524 15.4 64.1991 14.7467 64.1991 14C64.1991 13.2533 64.0524 12.6 63.7591 12.04C63.4791 11.48 63.0857 11.04 62.5791 10.72C62.0724 10.4 61.4857 10.24 60.8191 10.24C60.1657 10.24 59.5857 10.4 59.0791 10.72C58.5857 11.04 58.1924 11.48 57.8991 12.04C57.6191 12.6 57.4791 13.2533 57.4791 14C57.4791 14.7333 57.6191 15.3867 57.8991 15.96C58.1924 16.52 58.5924 16.96 59.0991 17.28C59.6191 17.6 60.2057 17.76 60.8591 17.76ZM74.9006 19L74.8006 17.16V9H76.4006V19H74.9006ZM67.7806 14.12V9H69.3806V14.12H67.7806ZM69.3806 14.12C69.3806 15.1067 69.494 15.86 69.7206 16.38C69.9473 16.9 70.2606 17.26 70.6606 17.46C71.074 17.6467 71.534 17.74 72.0406 17.74C72.9073 17.74 73.5806 17.4267 74.0606 16.8C74.554 16.1733 74.8006 15.3 74.8006 14.18H75.5806C75.5806 15.2333 75.4273 16.14 75.1206 16.9C74.814 17.66 74.3673 18.24 73.7806 18.64C73.2073 19.04 72.5006 19.24 71.6606 19.24C70.8873 19.24 70.2073 19.0867 69.6206 18.78C69.034 18.46 68.5806 17.96 68.2606 17.28C67.9406 16.5867 67.7806 15.6933 67.7806 14.6V14.12H69.3806ZM79.193 19V9H80.693L80.793 10.84V19H79.193ZM86.213 19V13.88H87.813V19H86.213ZM86.213 13.88C86.213 12.8933 86.0996 12.14 85.873 11.62C85.6463 11.1 85.333 10.7467 84.933 10.56C84.533 10.36 84.0796 10.26 83.573 10.26C82.693 10.26 82.0063 10.5733 81.513 11.2C81.033 11.8133 80.793 12.6867 80.793 13.82H80.013C80.013 12.7667 80.1663 11.86 80.473 11.1C80.7796 10.34 81.2263 9.76 81.813 9.36C82.3996 8.96 83.1063 8.76 83.933 8.76C84.7196 8.76 85.3996 8.92 85.973 9.24C86.5596 9.54667 87.013 10.04 87.333 10.72C87.6663 11.4 87.8263 12.2933 87.813 13.4V13.88H86.213ZM94.1053 19.24C93.132 19.24 92.3786 18.9867 91.8453 18.48C91.312 17.9733 91.0453 17.26 91.0453 16.34V5.88H92.6453V16.18C92.6453 16.6867 92.7786 17.08 93.0453 17.36C93.3253 17.6267 93.712 17.76 94.2053 17.76C94.3653 17.76 94.5186 17.74 94.6653 17.7C94.8253 17.6467 95.032 17.5267 95.2853 17.34L95.9053 18.64C95.5586 18.8667 95.2453 19.02 94.9653 19.1C94.6853 19.1933 94.3986 19.24 94.1053 19.24ZM89.3053 10.42V9H95.6453V10.42H89.3053Z" fill="#666666"/>
<defs>
<clipPath id="clip0_108_102">
<rect y="4" width="16" height="16" rx="8" fill="white"/>
</clipPath>
</defs>
</svg>
