<svg width="387" height="387" viewBox="0 0 387 387" fill="none" xmlns="http://www.w3.org/2000/svg">
<rect width="387" height="387" rx="91" fill="#D9D9D9"/>
<rect width="387" height="387" rx="91" fill="url(#paint0_linear_32_193)"/>
<rect width="387" height="387" rx="91" fill="black" fill-opacity="0.65"/>
<path d="M293.833 186.5C311.552 186.5 325.916 200.865 325.916 218.584V293.834C325.916 311.553 311.552 325.917 293.833 325.917H268.75C251.031 325.917 236.666 311.553 236.666 293.834V218.584C236.666 200.865 251.031 186.5 268.75 186.5H293.833ZM268.75 200.5C258.763 200.5 250.666 208.597 250.666 218.584V293.834C250.666 303.821 258.763 311.917 268.75 311.917H293.833C303.82 311.917 311.916 303.821 311.916 293.834V218.584C311.916 208.597 303.82 200.5 293.833 200.5H268.75ZM243.666 86.167C252.175 86.167 260.336 89.5477 266.353 95.5645C272.369 101.581 275.75 109.741 275.75 118.25V143.334C275.75 147.2 272.616 150.334 268.75 150.334C264.884 150.334 261.75 147.2 261.75 143.334V118.25C261.75 113.454 259.844 108.855 256.453 105.464C253.062 102.073 248.462 100.167 243.666 100.167H93.166C88.3702 100.167 83.771 102.073 80.3799 105.464C76.9888 108.855 75.0831 113.454 75.083 118.25V206.042C75.0831 210.838 76.9887 215.438 80.3799 218.829C83.771 222.22 88.3704 224.125 93.166 224.125H193.5C197.366 224.125 200.5 227.259 200.5 231.125C200.5 234.991 197.366 238.125 193.5 238.125H175.416V274.292H193.5C197.366 274.292 200.5 277.426 200.5 281.292C200.5 285.158 197.366 288.292 193.5 288.292H130.791C126.925 288.292 123.791 285.158 123.791 281.292C123.791 277.426 126.925 274.292 130.791 274.292H161.416V238.125H93.166C84.6574 238.125 76.4971 234.745 70.4805 228.729C64.4637 222.712 61.0831 214.551 61.083 206.042V118.25C61.0831 109.741 64.4639 101.581 70.4805 95.5645C76.4971 89.5478 84.6572 86.1671 93.166 86.167H243.666ZM168.5 128.125C170.226 128.125 171.625 129.524 171.625 131.25V134.548C174.492 134.865 177.229 135.614 179.771 136.727L181.42 133.874C182.284 132.38 184.194 131.869 185.688 132.732C187.183 133.596 187.694 135.507 186.83 137.001L185.18 139.854C187.454 141.533 189.466 143.545 191.145 145.819L193.999 144.17C195.493 143.306 197.404 143.817 198.268 145.312C199.131 146.806 198.62 148.716 197.126 149.58L194.272 151.229C195.386 153.77 196.134 156.507 196.451 159.375H199.75C201.476 159.375 202.875 160.774 202.875 162.5C202.875 164.226 201.476 165.625 199.75 165.625H196.451C196.134 168.493 195.385 171.229 194.272 173.771L197.126 175.42C198.62 176.284 199.131 178.194 198.268 179.688C197.404 181.183 195.493 181.694 193.999 180.83L191.145 179.18C189.466 181.454 187.454 183.466 185.18 185.145L186.83 187.999C187.694 189.493 187.183 191.404 185.688 192.268C184.194 193.131 182.284 192.62 181.42 191.126L179.771 188.272C177.229 189.385 174.493 190.134 171.625 190.451V193.75C171.625 195.476 170.226 196.875 168.5 196.875C166.774 196.875 165.375 195.476 165.375 193.75V190.451C162.507 190.134 159.769 189.386 157.227 188.272L155.581 191.125C154.718 192.619 152.807 193.131 151.312 192.269C149.818 191.406 149.306 189.495 150.169 188L151.817 185.143C149.544 183.465 147.532 181.453 145.854 179.18L143.001 180.83C141.507 181.694 139.596 181.183 138.732 179.688C137.869 178.194 138.38 176.284 139.874 175.42L142.727 173.771C141.614 171.229 140.866 168.492 140.549 165.625H137.25C135.524 165.625 134.125 164.226 134.125 162.5C134.125 160.774 135.524 159.375 137.25 159.375H140.549C140.866 156.507 141.613 153.77 142.727 151.229L139.874 149.58C138.38 148.716 137.869 146.806 138.732 145.312C139.596 143.817 141.507 143.306 143.001 144.17L145.854 145.819C147.532 143.546 149.544 141.534 151.817 139.856L150.169 137C149.306 135.505 149.818 133.594 151.312 132.731C152.807 131.869 154.718 132.381 155.581 133.875L157.227 136.727C159.769 135.613 162.507 134.865 165.375 134.548V131.25C165.375 129.524 166.774 128.125 168.5 128.125ZM177.339 165.625C176.052 169.266 172.582 171.875 168.5 171.875C167.914 171.875 167.341 171.818 166.784 171.715L160.377 182.815C162.889 183.821 165.629 184.375 168.5 184.375C179.52 184.375 188.635 176.226 190.151 165.625H177.339ZM154.967 145.312C149.886 149.318 146.625 155.528 146.625 162.5C146.625 169.472 149.887 175.681 154.967 179.687L161.373 168.587C159.973 166.949 159.125 164.824 159.125 162.5C159.125 160.176 159.972 158.05 161.373 156.412L154.967 145.312ZM168.5 159.375C167.972 159.375 167.474 159.507 167.038 159.738C167.005 159.759 166.972 159.78 166.938 159.8C166.921 159.809 166.904 159.817 166.888 159.826C165.982 160.373 165.375 161.365 165.375 162.5C165.375 163.635 165.982 164.626 166.888 165.173C166.904 165.182 166.921 165.191 166.938 165.2C166.972 165.22 167.005 165.24 167.038 165.261C167.474 165.492 167.972 165.625 168.5 165.625C170.226 165.625 171.625 164.226 171.625 162.5C171.625 160.774 170.226 159.375 168.5 159.375ZM168.5 140.625C165.63 140.625 162.888 141.179 160.377 142.184L166.784 153.284C167.341 153.181 167.914 153.125 168.5 153.125C172.582 153.125 176.052 155.734 177.339 159.375H190.151C188.635 148.774 179.52 140.625 168.5 140.625Z" fill="white" fill-opacity="0.9"/>
<defs>
<linearGradient id="paint0_linear_32_193" x1="0" y1="0" x2="59.2267" y2="431.943" gradientUnits="userSpaceOnUse">
<stop stop-color="#3EA5FA"/>
<stop offset="1" stop-color="#A566FF"/>
</linearGradient>
</defs>
</svg>
