<svg width="107" height="24" viewBox="0 0 107 24" fill="none" xmlns="http://www.w3.org/2000/svg">
<g clip-path="url(#clip0_108_93)">
<rect y="4" width="16" height="16" rx="8" fill="#0FC281"/>
<rect x="2.07422" y="6.07227" width="11.8534" height="11.8534" rx="5.9267" fill="#2EE5A3"/>
<rect x="4.20898" y="8.20898" width="7.60247" height="7.60247" rx="3.80123" fill="#5CFFC4"/>
<rect x="2.07422" y="6.07227" width="11.8534" height="11.8534" rx="5.9267" fill="#2EE5A3"/>
<rect x="4.20898" y="8.20898" width="7.60247" height="7.60247" rx="3.80123" fill="#5CFFC4"/>
</g>
<path d="M23.04 14.2L22.34 12.66L29.7 5H31.82L23.04 14.2ZM21.86 19V5H23.48V19H21.86ZM30.02 19L24.28 11.88L25.38 10.8L32.08 19H30.02ZM37.8113 19.24C36.8379 19.24 35.9779 19.02 35.2313 18.58C34.4846 18.1267 33.8979 17.5067 33.4713 16.72C33.0579 15.9333 32.8513 15.0267 32.8513 14C32.8513 12.9733 33.0579 12.0667 33.4713 11.28C33.8979 10.4933 34.4779 9.88 35.2113 9.44C35.9579 8.98667 36.8113 8.76 37.7713 8.76C38.7046 8.76 39.5113 8.99333 40.1913 9.46C40.8713 9.91333 41.3979 10.5533 41.7713 11.38C42.1446 12.2067 42.3313 13.18 42.3313 14.3H34.0713L34.4713 13.96C34.4713 14.76 34.6113 15.4467 34.8913 16.02C35.1846 16.5933 35.5913 17.0333 36.1113 17.34C36.6313 17.6333 37.2246 17.78 37.8913 17.78C38.5979 17.78 39.1913 17.6133 39.6713 17.28C40.1646 16.9467 40.5446 16.5067 40.8113 15.96L42.1913 16.66C41.9379 17.18 41.5979 17.6333 41.1713 18.02C40.7579 18.4067 40.2646 18.7067 39.6913 18.92C39.1313 19.1333 38.5046 19.24 37.8113 19.24ZM34.5713 13.28L34.1513 12.96H41.0513L40.6313 13.3C40.6313 12.66 40.5046 12.1067 40.2513 11.64C39.9979 11.1733 39.6579 10.8133 39.2313 10.56C38.8046 10.3067 38.3113 10.18 37.7513 10.18C37.2046 10.18 36.6846 10.3067 36.1913 10.56C35.7113 10.8133 35.3179 11.1733 35.0113 11.64C34.7179 12.0933 34.5713 12.64 34.5713 13.28ZM44.9953 23.24C44.742 23.24 44.4486 23.1867 44.1153 23.08C43.782 22.9867 43.4286 22.86 43.0553 22.7L43.6553 21.36C43.962 21.4933 44.2286 21.5933 44.4553 21.66C44.6953 21.7267 44.882 21.76 45.0153 21.76C45.3753 21.76 45.6686 21.66 45.8953 21.46C46.1353 21.2733 46.3353 21 46.4953 20.64L47.6353 17.92L51.3353 9H53.0553L48.2553 20.4C48.002 20.9867 47.7353 21.4933 47.4553 21.92C47.1886 22.3467 46.862 22.6733 46.4753 22.9C46.0886 23.1267 45.5953 23.24 44.9953 23.24ZM47.1953 19L42.8753 9H44.5753L48.2953 17.9L48.7753 19H47.1953ZM59.5627 19.24C58.7893 19.24 58.1027 19.16 57.5027 19C56.9027 18.8267 56.3827 18.5933 55.9427 18.3C55.5027 17.9933 55.1427 17.66 54.8627 17.3C54.5827 16.9267 54.376 16.5333 54.2427 16.12L55.8627 15.56C56.0627 16.1467 56.4627 16.66 57.0627 17.1C57.676 17.5267 58.4227 17.74 59.3027 17.74C60.3827 17.74 61.2293 17.5267 61.8427 17.1C62.456 16.6733 62.7627 16.1067 62.7627 15.4C62.7627 14.7467 62.4893 14.22 61.9427 13.82C61.396 13.4067 60.676 13.0867 59.7827 12.86L58.2427 12.46C57.616 12.3 57.036 12.0667 56.5027 11.76C55.9827 11.44 55.5627 11.04 55.2427 10.56C54.936 10.0667 54.7827 9.48 54.7827 8.8C54.7827 7.53333 55.1893 6.54667 56.0027 5.84C56.8293 5.12 58.016 4.76 59.5627 4.76C60.4827 4.76 61.276 4.91333 61.9427 5.22C62.6093 5.51333 63.1493 5.89333 63.5627 6.36C63.9893 6.81333 64.2893 7.30667 64.4627 7.84L62.8627 8.4C62.6093 7.73333 62.1827 7.21333 61.5827 6.84C60.9827 6.45333 60.256 6.26 59.4027 6.26C58.5093 6.26 57.796 6.48 57.2627 6.92C56.7427 7.34667 56.4827 7.93333 56.4827 8.68C56.4827 9.32 56.6893 9.81333 57.1027 10.16C57.516 10.4933 58.056 10.74 58.7227 10.9L60.2627 11.28C61.6227 11.6 62.6627 12.1333 63.3827 12.88C64.116 13.6133 64.4827 14.4067 64.4827 15.26C64.4827 15.9933 64.296 16.6667 63.9227 17.28C63.5493 17.88 62.996 18.36 62.2627 18.72C61.5427 19.0667 60.6427 19.24 59.5627 19.24ZM70.6678 19.24C69.6945 19.24 68.9411 18.9867 68.4078 18.48C67.8745 17.9733 67.6078 17.26 67.6078 16.34V5.88H69.2078V16.18C69.2078 16.6867 69.3411 17.08 69.6078 17.36C69.8878 17.6267 70.2745 17.76 70.7678 17.76C70.9278 17.76 71.0811 17.74 71.2278 17.7C71.3878 17.6467 71.5945 17.5267 71.8478 17.34L72.4678 18.64C72.1211 18.8667 71.8078 19.02 71.5278 19.1C71.2478 19.1933 70.9611 19.24 70.6678 19.24ZM65.8678 10.42V9H72.2078V10.42H65.8678ZM78.8278 19.24C77.8545 19.24 76.9878 19.02 76.2278 18.58C75.4811 18.1267 74.8945 17.5067 74.4678 16.72C74.0411 15.9333 73.8278 15.0267 73.8278 14C73.8278 12.9733 74.0345 12.0667 74.4478 11.28C74.8745 10.4933 75.4611 9.88 76.2078 9.44C76.9678 8.98667 77.8278 8.76 78.7878 8.76C79.7745 8.76 80.6411 8.98667 81.3878 9.44C82.1478 9.88 82.7345 10.4933 83.1478 11.28C83.5745 12.0667 83.7878 12.9733 83.7878 14C83.7878 15.0267 83.5745 15.9333 83.1478 16.72C82.7345 17.5067 82.1545 18.1267 81.4078 18.58C80.6611 19.02 79.8011 19.24 78.8278 19.24ZM78.8278 17.76C79.4945 17.76 80.0745 17.6 80.5678 17.28C81.0611 16.96 81.4478 16.52 81.7278 15.96C82.0211 15.4 82.1678 14.7467 82.1678 14C82.1678 13.2533 82.0211 12.6 81.7278 12.04C81.4478 11.48 81.0545 11.04 80.5478 10.72C80.0411 10.4 79.4545 10.24 78.7878 10.24C78.1345 10.24 77.5545 10.4 77.0478 10.72C76.5545 11.04 76.1611 11.48 75.8678 12.04C75.5878 12.6 75.4478 13.2533 75.4478 14C75.4478 14.7333 75.5878 15.3867 75.8678 15.96C76.1611 16.52 76.5611 16.96 77.0678 17.28C77.5878 17.6 78.1745 17.76 78.8278 17.76ZM86.0094 19V9H87.5094L87.6094 10.84V19H86.0094ZM93.0294 19V13.88H94.6294V19H93.0294ZM93.0294 13.88C93.0294 12.8933 92.916 12.14 92.6894 11.62C92.4627 11.1 92.1494 10.7467 91.7494 10.56C91.3494 10.36 90.896 10.26 90.3894 10.26C89.5094 10.26 88.8227 10.5733 88.3294 11.2C87.8494 11.8133 87.6094 12.6867 87.6094 13.82H86.8294C86.8294 12.7667 86.9827 11.86 87.2894 11.1C87.596 10.34 88.0427 9.76 88.6294 9.36C89.216 8.96 89.9227 8.76 90.7494 8.76C91.536 8.76 92.216 8.92 92.7894 9.24C93.376 9.54667 93.8294 10.04 94.1494 10.72C94.4827 11.4 94.6427 12.2933 94.6294 13.4V13.88H93.0294ZM101.542 19.24C100.568 19.24 99.7084 19.02 98.9617 18.58C98.2151 18.1267 97.6284 17.5067 97.2017 16.72C96.7884 15.9333 96.5817 15.0267 96.5817 14C96.5817 12.9733 96.7884 12.0667 97.2017 11.28C97.6284 10.4933 98.2084 9.88 98.9417 9.44C99.6884 8.98667 100.542 8.76 101.502 8.76C102.435 8.76 103.242 8.99333 103.922 9.46C104.602 9.91333 105.128 10.5533 105.502 11.38C105.875 12.2067 106.062 13.18 106.062 14.3H97.8017L98.2017 13.96C98.2017 14.76 98.3417 15.4467 98.6217 16.02C98.9151 16.5933 99.3217 17.0333 99.8417 17.34C100.362 17.6333 100.955 17.78 101.622 17.78C102.328 17.78 102.922 17.6133 103.402 17.28C103.895 16.9467 104.275 16.5067 104.542 15.96L105.922 16.66C105.668 17.18 105.328 17.6333 104.902 18.02C104.488 18.4067 103.995 18.7067 103.422 18.92C102.862 19.1333 102.235 19.24 101.542 19.24ZM98.3017 13.28L97.8817 12.96H104.782L104.362 13.3C104.362 12.66 104.235 12.1067 103.982 11.64C103.728 11.1733 103.388 10.8133 102.962 10.56C102.535 10.3067 102.042 10.18 101.482 10.18C100.935 10.18 100.415 10.3067 99.9217 10.56C99.4417 10.8133 99.0484 11.1733 98.7417 11.64C98.4484 12.0933 98.3017 12.64 98.3017 13.28Z" fill="#666666"/>
<defs>
<clipPath id="clip0_108_93">
<rect y="4" width="16" height="16" rx="8" fill="white"/>
</clipPath>
</defs>
</svg>
